<?xml version="1.0" standalone="no"?>
<!DOCTYPE svg PUBLIC "-//W3C//DTD SVG 20010904//EN"
 "http://www.w3.org/TR/2001/REC-SVG-20010904/DTD/svg10.dtd">
<svg version="1.0" xmlns="http://www.w3.org/2000/svg"
 width="64.000000pt" height="64.000000pt" viewBox="0 0 64.000000 64.000000"
 preserveAspectRatio="xMidYMid meet">
<metadata>
Created by potrace 1.15, written by Peter Selinger 2001-2017
</metadata>
<g transform="translate(0.000000,64.000000) scale(0.100000,-0.100000)"
fill="#000000" stroke="none">
<path d="M235 541 c-22 -10 -54 -34 -72 -52 -35 -37 -67 -104 -58 -119 11 -19
23 -10 35 24 6 19 17 40 25 46 8 7 6 -3 -5 -26 -11 -20 -17 -41 -14 -45 10
-17 24 -8 38 25 8 19 34 49 58 66 39 29 48 31 105 28 67 -4 100 -21 137 -72
16 -21 21 -42 21 -95 0 -58 -4 -73 -27 -103 -77 -101 -247 -84 -294 28 -14 33
-28 42 -38 25 -3 -4 3 -25 14 -45 11 -23 13 -33 5 -26 -8 6 -19 27 -25 46 -12
34 -24 43 -35 24 -9 -15 23 -82 58 -119 46 -48 101 -71 175 -71 146 0 242 95
242 240 0 104 -53 187 -142 224 -52 22 -153 20 -203 -3z"/>
</g>
</svg>
